<svg width="112" height="48" viewBox="0 0 112 48" fill="none" xmlns="http://www.w3.org/2000/svg">
<mask id="mask0_615_28" style="mask-type:alpha" maskUnits="userSpaceOnUse" x="0" y="10" width="111" height="26">
<path fill-rule="evenodd" clip-rule="evenodd" d="M0 10.8889H110.25V35.3889H0V10.8889Z" fill="white"/>
</mask>
<g mask="url(#mask0_615_28)">
<path fill-rule="evenodd" clip-rule="evenodd" d="M7.42649 22.6653C10.0414 22.6653 11.7152 22.2256 12.9359 21.2441C14.0166 20.3641 14.5394 19.1799 14.5394 17.7249C14.5394 15.9311 13.738 14.7131 12.4829 13.9009C11.1225 13.0209 9.44925 12.7844 6.62501 12.7844H2.12749L2.12695 22.6653H7.42649ZM0.000536826 10.8889L6.76454 10.8894C9.69346 10.8894 11.9599 11.2281 13.7384 12.345C15.4466 13.4276 16.6668 15.187 16.6668 17.6236C16.6674 19.857 15.6211 21.6841 14.0171 22.8005C12.8666 23.6133 11.5069 24.0191 9.93771 24.2562L18.375 35.3884L15.795 35.3889L7.56602 24.4249H2.12744L2.1269 35.3884H0L0.000536826 10.8889Z" fill="white"/>
<path fill-rule="evenodd" clip-rule="evenodd" d="M42.8754 18.5452H44.4062L44.4059 35.3889H42.875L42.8754 18.5452Z" fill="white"/>
<path fill-rule="evenodd" clip-rule="evenodd" d="M50.9518 31.9152C52.8108 33.0292 55.195 33.6195 57.474 33.6195C60.3846 33.6195 62.2436 32.669 62.2441 30.7356C62.2436 28.3109 59.368 28.0485 56.6684 27.655C53.7929 27.2291 50.5312 26.4426 50.5312 23.1657C50.5318 20.1178 53.3015 18.5452 57.2294 18.5452C59.4733 18.5452 61.7533 19.0694 63.4368 19.9215L63.4362 21.9533C61.6129 20.8721 59.2983 20.3151 57.1597 20.3151C54.4591 20.3151 52.6007 21.1995 52.6002 23.035C52.6007 25.2958 55.4061 25.5253 58.0004 25.9189C61.1216 26.3775 64.3125 27.1636 64.3125 30.5717C64.3125 33.7507 61.5422 35.3889 57.3692 35.3889C55.0897 35.3889 52.7049 34.897 50.9518 33.9798V31.9152Z" fill="white"/>
<path fill-rule="evenodd" clip-rule="evenodd" d="M70.699 29.494L70.6995 20.5374H67.375L67.3755 18.8247H70.6995V14.2805L72.7007 13.9514V18.8252H78.0938V20.5374H72.7007V29.165C72.7007 31.6016 73.073 33.6104 75.7192 33.6109C76.6007 33.6104 77.4488 33.3802 78.0938 33.0177L78.0932 34.8621C77.4488 35.1582 76.4654 35.3889 75.4476 35.3889C74.2266 35.3889 72.8359 35.0594 71.886 34.0053C71.0379 33.0506 70.699 31.6016 70.699 29.494Z" fill="white"/>
<path fill-rule="evenodd" clip-rule="evenodd" d="M91.8261 31.7583V28.1282C90.5743 27.7687 89.1259 27.5396 87.8082 27.5396C85.5035 27.5396 83.1323 28.2586 83.1328 30.6465C83.1323 32.7397 84.9432 33.6552 86.919 33.6557C88.7634 33.6557 90.5414 32.8707 91.8261 31.7583ZM82.8354 34.2766C81.7819 33.492 81.1562 32.3147 81.1562 30.8101C81.1562 29.1091 81.9466 27.8991 83.1979 27.0813C84.4167 26.2968 86.0629 26.0027 87.6436 26.0022C89.1256 26.0022 90.4752 26.2314 91.8258 26.5914V24.7273C91.8258 23.1572 91.5292 22.1435 90.6404 21.3585C89.8825 20.7044 88.7636 20.3444 87.3141 20.3444C85.4048 20.3444 83.6592 20.9657 82.3421 21.9144V19.9848C83.6592 19.1665 85.4702 18.5457 87.5123 18.5452C89.4551 18.5457 91.0354 19.0361 92.1224 19.9521C93.2083 20.868 93.7685 22.3067 93.7685 24.2695V31.2356C93.768 32.6093 94.0971 33.6235 95.4147 33.623C95.8097 33.623 96.1722 33.5253 96.4688 33.3616L96.4682 35.0299C96.1063 35.193 95.6125 35.2912 95.0522 35.2912C93.6692 35.2912 92.5827 34.6371 92.1219 33.3939H92.0559C90.8377 34.4407 88.8619 35.3889 86.6555 35.3889C85.2725 35.3889 83.8894 35.0621 82.8354 34.2766Z" fill="white"/>
<path fill-rule="evenodd" clip-rule="evenodd" d="M102.855 29.4945L102.856 20.5374H99.5312L99.5318 18.8252H102.856V14.281L104.857 13.9514V18.8252H110.25V20.5374H104.857V29.165C104.857 31.6021 105.229 33.6109 107.875 33.6109C108.757 33.6109 109.605 33.3802 110.25 33.0182L110.249 34.8621C109.605 35.1587 108.622 35.3889 107.604 35.3889C106.383 35.3889 104.992 35.0599 104.042 34.0058C103.194 33.0511 102.855 31.6021 102.855 29.4945Z" fill="white"/>
<path fill-rule="evenodd" clip-rule="evenodd" d="M32.4409 24.5718C32.9102 25.2463 33.1848 26.0707 33.1848 26.9673C33.1848 29.2614 31.4079 31.0964 29.094 31.0964C26.7807 31.0964 25.0032 29.2609 25.0032 26.9673C25.0032 24.6737 26.7807 22.8382 29.0945 22.8382C30.1265 22.8382 31.0501 23.2055 31.7584 23.814L34.7656 20.2555C33.2276 19.1778 31.2772 18.5457 29.0945 18.5452C23.8298 18.5452 19.9068 22.2156 19.9062 26.9673C19.9062 31.719 23.8298 35.3889 29.094 35.3889C34.3582 35.3894 38.2812 31.7195 38.2812 26.9678C38.2812 24.9936 37.6029 23.208 36.4341 21.7928L32.4409 24.5718Z" fill="#2589FF"/>
<path fill-rule="evenodd" clip-rule="evenodd" d="M43.5456 15.4827L47.4688 12.5251C46.999 11.9086 46.4486 11.3588 45.8293 10.8889L42.875 14.6756C43.1291 14.9119 43.3533 15.1836 43.5456 15.4827Z" fill="#2589FF"/>
</g>
</svg>
